<?xml version="1.0" encoding="UTF-8"?>
<svg id="Layer_1" data-name="Layer 1" xmlns="http://www.w3.org/2000/svg" viewBox="0 0 120 59.26">
  <defs>
    <style>
      .cls-1 {
        fill: #222;
      }

      .cls-2 {
        fill: #1f3a5f;
      }
    </style>
  </defs>
  <g>
    <path class="cls-2" d="M57.45,25.25c-.59-.33-1.28-.49-2.1-.49h-2.83v8.19h2.77c.83,0,1.54-.16,2.14-.49s1.05-.8,1.36-1.41c.32-.61.47-1.35.47-2.2s-.16-1.58-.47-2.19c-.31-.61-.76-1.08-1.35-1.41ZM57.51,30.41c-.19.42-.48.73-.86.94-.38.21-.86.31-1.43.31h-1.22v-5.62h1.26c.55,0,1.02.1,1.39.31s.66.52.85.93c.19.41.29.93.29,1.56s-.1,1.15-.29,1.57Z"/>
    <path class="cls-2" d="M64.85,24.76l-2.88,8.19h1.58l.68-2.02h3.08l.68,2.02h1.58l-2.89-8.19h-1.83ZM64.63,29.74l1.11-3.3h.06l1.11,3.3h-2.28Z"/>
    <polygon class="cls-2" points="79.49 24.76 77.67 24.76 74.48 28.52 74.38 28.52 74.38 24.76 72.9 24.76 72.9 32.95 74.38 32.95 74.38 30.51 75.29 29.44 77.73 32.95 79.51 32.95 76.32 28.43 79.49 24.76"/>
    <path class="cls-2" d="M87.97,29.04c-.23-.19-.49-.34-.77-.46s-.58-.22-.89-.29l-.77-.19c-.17-.04-.33-.09-.5-.15-.17-.06-.32-.13-.45-.22-.14-.09-.24-.19-.32-.32-.08-.12-.12-.27-.12-.44,0-.21.06-.39.18-.55.12-.16.29-.29.51-.38.22-.09.49-.14.8-.14.44,0,.8.1,1.07.29.28.19.43.47.47.82h1.43c0-.46-.14-.87-.39-1.23-.25-.36-.6-.64-1.03-.84-.44-.2-.95-.3-1.53-.3s-1.09.1-1.54.3c-.45.2-.81.48-1.07.85-.26.36-.39.79-.39,1.27,0,.59.2,1.06.59,1.41.39.35.92.62,1.6.79l.93.24c.29.07.55.16.77.25s.39.21.51.35c.12.14.19.32.19.53,0,.23-.07.44-.21.61-.14.18-.33.31-.57.41s-.53.15-.85.15-.59-.05-.84-.14-.45-.23-.61-.42c-.15-.19-.24-.43-.26-.71h-1.46c.02.54.16,1.01.43,1.38.26.38.63.67,1.09.86.47.2,1.02.3,1.66.3s1.21-.1,1.68-.31c.46-.2.82-.49,1.06-.85.25-.36.37-.79.37-1.27,0-.35-.07-.66-.2-.93-.13-.26-.31-.49-.54-.68Z"/>
    <polygon class="cls-2" points="97.56 28.23 93.77 28.23 93.77 24.76 92.29 24.76 92.29 32.95 93.77 32.95 93.77 29.47 97.56 29.47 97.56 32.95 99.05 32.95 99.05 24.76 97.56 24.76 97.56 28.23"/>
    <rect class="cls-2" x="102.91" y="24.76" width="1.48" height="8.19"/>
    <polygon class="cls-2" points="113.51 30.34 113.44 30.34 109.59 24.76 108.26 24.76 108.26 32.95 109.74 32.95 109.74 27.37 109.81 27.37 113.67 32.95 114.99 32.95 114.99 24.76 113.51 24.76 113.51 30.34"/>
    <path class="cls-2" d="M57.17,42.59c.43-.21.76-.51.98-.89.22-.38.33-.84.33-1.36s-.11-.98-.33-1.37c-.22-.39-.54-.7-.97-.92-.43-.22-.96-.33-1.59-.33h-3.07v8.19h1.48v-3h1.51l1.61,3h1.66l-1.78-3.26c.05-.02.12-.03.16-.05ZM54.01,38.96h1.36c.37,0,.67.05.91.16.23.11.41.26.52.47.11.21.17.45.17.75s-.06.53-.17.73c-.11.2-.29.35-.52.45-.23.1-.54.15-.9.15h-1.37v-2.72Z"/>
    <path class="cls-2" d="M64.45,37.72l-2.88,8.19h1.58l.68-2.02h3.08l.68,2.02h1.58l-2.89-8.19h-1.83ZM64.23,42.7l1.11-3.3h.06l1.11,3.3h-2.28Z"/>
    <path class="cls-2" d="M75.86,42.78h1.88c0,.37-.08.7-.24.99-.17.29-.4.52-.71.68-.3.16-.67.24-1.08.24-.46,0-.86-.11-1.21-.33-.35-.22-.62-.55-.81-.98-.19-.43-.29-.95-.29-1.57s.1-1.13.29-1.56.47-.75.81-.97c.34-.22.74-.33,1.18-.33.25,0,.47.03.68.09.21.06.39.16.55.28.16.12.3.27.42.44.12.17.21.37.27.58h1.51c-.06-.4-.19-.77-.39-1.1-.2-.33-.45-.62-.75-.86-.3-.24-.65-.43-1.05-.56-.39-.13-.81-.2-1.27-.2-.54,0-1.03.1-1.49.29-.46.19-.85.47-1.19.83-.34.36-.6.81-.79,1.33s-.28,1.11-.28,1.77c0,.86.16,1.61.48,2.24.32.63.76,1.11,1.33,1.45.57.34,1.23.51,1.99.51.68,0,1.28-.14,1.8-.41.52-.28.93-.67,1.23-1.18.3-.51.45-1.12.45-1.82v-.98h-3.32v1.16Z"/>
    <path class="cls-2" d="M84.96,37.72l-2.88,8.19h1.58l.68-2.02h3.08l.68,2.02h1.58l-2.89-8.19h-1.83ZM84.74,42.7l1.11-3.3h.06l1.11,3.3h-2.28Z"/>
    <polygon class="cls-2" points="97.52 37.72 95.39 44.16 95.31 44.16 93.17 37.72 91.55 37.72 94.43 45.91 96.26 45.91 99.15 37.72 97.52 37.72"/>
  </g>
  <g>
    <polygon class="cls-2" points="14.14 34.51 20.85 34.51 25.97 39.41 19.47 39.41 14.14 34.51"/>
    <path class="cls-1" d="M35.88,32.41c2.24-2.35,3.52-4.4,2.1-9.52-1.42-5.12-5.26-8.35-12.79-8.05h-14.14v29.63h14.14s3.41-.48,4.26-.98l4.13,3.67s-3.48,2.69-8.39,2.69H5.39V9.46h19.79s10.31-1,15.49,5.68,7.39,19.61-5.65,23.63l12.9,11.08h-7.57l-16.52-15.35s9.8.25,12.04-2.1Z"/>
  </g>
</svg>